<?xml version="1.0" ?><svg height="210mm" id="svg6336" version="1.1" viewBox="0 0 210 210" width="210mm" xmlns="http://www.w3.org/2000/svg" xmlns:cc="http://creativecommons.org/ns#" xmlns:dc="http://purl.org/dc/elements/1.1/" xmlns:rdf="http://www.w3.org/1999/02/22-rdf-syntax-ns#" xmlns:svg="http://www.w3.org/2000/svg"><defs id="defs6330"/><g id="layer1" transform="translate(0,-87)"><path d="M 66.886719 22.435547 C 43.330821 22.435547 24.367188 41.399173 24.367188 64.955078 L 24.367188 270.39453 L 24.367188 398.47656 L 771.91797 398.47656 L 771.91797 396.9668 L 771.91797 270.39453 L 771.91797 64.955078 C 771.91797 41.399169 752.95434 22.435547 729.39844 22.435547 L 727.70312 22.435547 L 523.04102 22.435547 L 400.4082 22.435547 L 395.87695 22.435547 L 273.24414 22.435547 L 270 22.435547 L 190.18555 22.435547 L 68.582031 22.435547 L 66.886719 22.435547 z " id="path7764" style="opacity:1;fill:#df112b;fill-opacity:1;fill-rule:nonzero;stroke:none;stroke-width:1.00157475;stroke-linecap:round;stroke-linejoin:round;stroke-miterlimit:4;stroke-dasharray:none;stroke-dashoffset:0;stroke-opacity:1" transform="matrix(0.26458333,0,0,0.26458333,0,87)"/><path d="M 24.367188 398.47656 L 24.367188 522.02734 L 24.367188 727.4668 C 24.367188 751.0227 43.330821 769.98633 66.886719 769.98633 L 68.582031 769.98633 L 182.77148 769.98633 L 270 769.98633 L 273.24414 769.98633 L 395.87695 769.98633 L 400.4082 769.98633 L 523.04102 769.98633 L 727.70312 769.98633 L 729.39844 769.98633 C 752.95434 769.98633 771.91797 751.0227 771.91797 727.4668 L 771.91797 522.02734 L 771.91797 398.47656 L 24.367188 398.47656 z " id="rect7807" style="opacity:1;fill:#ffffff;fill-opacity:1;fill-rule:nonzero;stroke:none;stroke-width:1.00157475;stroke-linecap:round;stroke-linejoin:round;stroke-miterlimit:4;stroke-dasharray:none;stroke-dashoffset:0;stroke-opacity:1" transform="matrix(0.26458333,0,0,0.26458333,0,87)"/></g></svg>